<svg xmlns="http://www.w3.org/2000/svg" viewBox="0 0 217.33 248.79"><defs><style>.cls-1{fill:none;stroke:#ed4009;stroke-miterlimit:10;stroke-width:8px;}</style></defs><title>cam2</title><g id="Слой_2" data-name="Слой 2"><g id="Слой_1-2" data-name="Слой 1"><path class="cls-1" d="M108.67,117.52H18.17A14.17,14.17,0,0,0,4,131.69v99a14.13,14.13,0,0,0,14.13,14.13H199.2a14.13,14.13,0,0,0,14.13-14.13v-99a14.17,14.17,0,0,0-14.17-14.17H148.33V101.21c0-7.32-4.38-13-11.7-13H77.3c-5.07,0-8.3,4.64-8.3,9.71h0"/><circle class="cls-1" cx="108.67" cy="181.1" r="41.93"/><circle class="cls-1" cx="191" cy="139.69" r="4.62"/><polygon class="cls-1" points="108.97 9.04 117 25.3 134.94 27.91 121.96 40.57 125.02 58.44 108.97 50 92.92 58.44 95.99 40.57 83 27.91 100.95 25.3 108.97 9.04"/></g></g></svg>