<svg xmlns="http://www.w3.org/2000/svg" viewBox="0 0 331.37 315.07"><defs><style>.cls-1{fill:none;stroke:#ed4009;stroke-miterlimit:10;stroke-width:8px;}</style></defs><title>cam3_1</title><g id="Слой_2" data-name="Слой 2"><g id="Слой_1-2" data-name="Слой 1"><path class="cls-1" d="M165.86,108.92H75.36a14.16,14.16,0,0,0-14.17,14.16v99a14.14,14.14,0,0,0,14.13,14.14H256.39A14.13,14.13,0,0,0,270.52,222v-99a14.15,14.15,0,0,0-14.16-14.16H205.52V92.6a16.52,16.52,0,0,0-.42-3.78,13,13,0,0,0-2.72-5.53h0a11,11,0,0,0-8.55-3.7H134.49a7.45,7.45,0,0,0-4.3,1.32,10,10,0,0,0-4,8.06h0c0,.1,0,.21,0,.32"/><circle class="cls-1" cx="165.85" cy="172.49" r="41.93"/><circle class="cls-1" cx="248.18" cy="131.08" r="4.62"/><polyline class="cls-1" points="61.19 174.34 8.6 123.08 63.66 115.08"/><polyline class="cls-1" points="268.09 115.14 322.78 123.08 270.52 174.03"/><line class="cls-1" x1="126.2" y1="88.97" x2="126.2" y2="88.96"/><polyline class="cls-1" points="127.82 83.95 165.69 8.96 202.37 83.28 202.38 83.28 205.1 88.81 214.23 107.31 225.24 108.92"/><polyline class="cls-1" points="250.51 236.19 262.78 307.75 165.69 256.71 68.6 307.75 80.88 236.19"/></g></g></svg>