<?xml version="1.0" encoding="utf-8"?>
<!-- Generator: Adobe Illustrator 21.1.0, SVG Export Plug-In . SVG Version: 6.00 Build 0)  -->
<svg version="1.1" id="Слой_1" xmlns="http://www.w3.org/2000/svg" xmlns:xlink="http://www.w3.org/1999/xlink" x="0px" y="0px"
	 viewBox="0 0 283.5 266.5" style="enable-background:new 0 0 283.5 266.5;" xml:space="preserve">
<style type="text/css">
	.st0{fill:none;stroke:#ED4009;stroke-width:8;stroke-miterlimit:10;}
</style>
<g>
	<path class="st0" d="M142.2,92.6H91.8h-26c-4.1,0-7.7,2.1-9.9,5.2c-1.3,1.9-2.1,4.2-2.1,6.7v42.9v39.9c0,6.5,5.3,11.8,11.9,11.8
		h4.7h99.8h43.3h5c6.6,0,11.9-5.3,11.9-11.8v-8.2v-31.9v-42.6c0-2.5-0.8-4.7-2.1-6.6c-2.2-3.1-5.8-5.2-9.9-5.2h-26.3h-16.6V79
		c0-1.1-0.1-2.2-0.4-3.2c-0.4-1.8-1.2-3.4-2.3-4.6l0,0c-1.7-1.9-4.2-3.1-7.2-3.1h-50.1c-1.4,0-2.6,0.4-3.6,1.1
		c-2.1,1.4-3.3,4-3.4,6.7v0c0,0.1,0,0.2,0,0.3"/>
	<ellipse class="st0" cx="142.2" cy="145.8" rx="35.4" ry="35.1"/>
	<ellipse class="st0" cx="211.6" cy="111.2" rx="3.9" ry="3.9"/>
	<polyline class="st0" points="53.8,147.4 9.5,104.5 55.9,97.8 	"/>
	<polyline class="st0" points="228.4,97.8 274.6,104.5 230.5,147.1 	"/>
	<line class="st0" x1="108.7" y1="75.9" x2="108.7" y2="75.9"/>
	<polyline class="st0" points="110.1,71.7 142,9 173,71.2 173,71.2 175.3,75.8 183,91.3 192.3,92.6 	"/>
	<polyline class="st0" points="213.6,199.1 223.9,259 142,216.3 60.1,259 70.5,199.1 	"/>
</g>
</svg>
