<?xml version="1.0" encoding="utf-8"?>
<!-- Generator: Adobe Illustrator 21.1.0, SVG Export Plug-In . SVG Version: 6.00 Build 0)  -->
<svg version="1.1" id="Слой_1" xmlns="http://www.w3.org/2000/svg" xmlns:xlink="http://www.w3.org/1999/xlink" x="0px" y="0px"
	 viewBox="0 0 283.5 266.5" style="enable-background:new 0 0 283.5 266.5;" xml:space="preserve">
<style type="text/css">
	.st0{fill:none;stroke:#ED4009;stroke-width:8;stroke-miterlimit:10;}
</style>
<path class="st0" d="M204.4,151.2v-24.4l-54.5,14.7c-5.4,1.4-11,1.4-16.3,0l-55.2-14.9v55.1l55.2,15.2c5.4,1.4,11,1.6,16.3,0.2
	L180,189"/>
<circle class="st0" cx="33.2" cy="117.1" r="5"/>
<path class="st0" d="M131.6,72.8"/>
<path class="st0" d="M126.3,68.4L16,98.1l117,31.5c5.8,1.5,11.8,1.5,17.6,0l117-31.5l-96.5-26c-5.3-1.4-10.9-1.4-16.2,0l-41.9,11.3"
	/>
<polyline class="st0" points="39.2,151.2 27.3,151.2 30.3,131.2 36.2,131.2 "/>
</svg>
